#!OML:ASF F:\VICON\USERDATA\INSTALL\SteveWalk\SteveWalk.ASF
:FULLY-SPECIFIED
:DEGREES
1
root -0.76678 16.2192 -46.4978 17.8458 1.27548 -1.67646
lowerback -15.6241 -0.583327 3.58373
upperback -4.50827 -1.47844 3.06277
thorax 3.95578 -0.716486 0.921819
lowerneck -5.40353 -0.72602 1.65579
upperneck 6.77089 -0.791769 -4.25043
head 3.10947 -0.509719 -1.71536
rclavicle -1.18028e-014 3.18055e-015
rhumerus -63.2968 -45.9217 -34.4996
rradius 12.839
rwrist 40.2214
rhand -16.9922 -35.2177
rfingers 7.12502
rthumb 9.24289 -64.9951
lclavicle -1.18028e-014 3.18055e-015
lhumerus -30.9466 6.64861 84.1576
lradius 41.0768
lwrist 6.17628
lhand -22.1026 -19.2924
lfingers 7.12502
lthumb 4.30968 10.6438
rfemur -44.033 -0.493913 25.4556
rtibia 41.1882
rfoot -17.2286 4.50173
rtoes -14.8514
lfemur -30.9938 1.31443 -18.3459
ltibia 75.3552
lfoot 3.48547 -6.4777
ltoes -5.01863
2
root -0.765107 16.259 -46.2715 17.4473 0.518071 -1.68727
lowerback -16.0658 -0.411837 3.18688
upperback -4.17609 -1.24553 3.32383
thorax 4.56243 -0.595302 1.46166
lowerneck -4.84113 -0.705988 0.988855
upperneck 6.6876 -0.708447 -4.30498
head 2.97609 -0.481413 -1.60214
rclavicle 5.56597e-015 9.54166e-015
rhumerus -58.5701 -44.9397 -39.5753
rradius 12.9443
rwrist 38.0525
rhand -17.1241 -35.3716
rfingers 7.12502
rthumb 9.11557 -65.1546
lclavicle 5.56597e-015 9.54166e-015
lhumerus -31.477 7.46624 84.6332
lradius 39.5672
lwrist 5.21212
lhand -21.7688 -19.4058
lfingers 7.12502
lthumb 4.63201 10.5236
rfemur -42.4378 0.0647533 25.2637
rtibia 40.8057
rfoot -17.8298 4.44761
rtoes -14.0328
lfemur -31.88 1.9549 -18.6189
ltibia 75.7492
lfoot 2.71778 -5.99684
ltoes -2.9241
3
root -0.789865 16.2788 -46.1067 17.6115 1.02786 -1.0885
lowerback -15.9516 -0.721999 2.34154
upperback -4.35993 -1.49988 3.25106
thorax 4.32788 -0.728022 1.81398
lowerneck -4.44641 -0.643174 0.824225
upperneck 6.76052 -0.609766 -4.31489
head 2.92894 -0.433648 -1.56861
rclavicle -2.60905e-015 -4.77083e-015
rhumerus -54.7202 -43.8422 -44.294
rradius 13.1719
rwrist 36.0081
rhand -17.2237 -35.1975
rfingers 7.12502
rthumb 9.01948 -64.9847
lclavicle -2.60905e-015 -4.77083e-015
lhumerus -32.2151 7.55316 84.7274
lradius 38.143
lwrist 4.85827
lhand -21.3142 -18.9235
lfingers 7.12502
lthumb 5.07096 10.9958
rfemur -41.7779 -0.0722905 24.6833
rtibia 40.5433
rfoot -18.1896 3.76184
rtoes -13.4695
lfemur -34.0732 1.66224 -19.2491
ltibia 76.0389
lfoot 2.02947 -5.64766
ltoes -9.72634
4
root -0.776461 16.3258 -45.8592 17.0676 0.0704219 -1.10816
lowerback -15.848 -0.255902 2.50361
upperback -4.10357 -0.904083 2.99379
thorax 4.52659 -0.431674 1.56588
lowerneck -4.72416 -0.79148 1.19018
upperneck 7.15415 -0.806876 -4.52314
head 3.11082 -0.536171 -1.72027
rclavicle 1.31695e-014 -3.4191e-014
rhumerus -50.6563 -42.062 -49.6769
rradius 13.6612
rwrist 32.8668
rhand -17.2848 -35.2853
rfingers 7.12502
rthumb 8.9605 -65.075
lclavicle 1.31695e-014 -3.4191e-014
lhumerus -32.89 7.16898 84.8013
lradius 36.693
lwrist 4.37246
lhand -20.6643 -18.0072
lfingers 7.12502
lthumb 5.69846 11.8962
rfemur -39.8686 0.365399 24.5013
rtibia 40.0825
rfoot -19.0334 4.0035
rtoes -12.3888
lfemur -34.3545 2.43204 -19.5832
ltibia 76.0503
lfoot 1.29756 -4.38442
ltoes -5.98781
5
root -0.802114 16.3409 -45.6974 17.53 1.17716 -0.652363
lowerback -16.0455 -0.544584 1.90441
upperback -4.05726 -1.18367 2.76925
thorax 4.69265 -0.57185 1.61191
lowerneck -5.80128 -0.872579 1.64143
upperneck 7.67266 -0.934376 -4.57824
head 3.4935 -0.604513 -1.85021
rclavicle 1.17283e-014 7.95139e-015
rhumerus -46.4389 -40.8025 -54.9607
rradius 14.2072
rwrist 29.9088
rhand -17.2925 -35.7812
rfingers 7.12502
rthumb 8.95313 -65.5712
lclavicle 1.17283e-014 7.95139e-015
lhumerus -32.6925 6.80883 84.7751
lradius 34.9282
lwrist 3.73474
lhand -19.5515 -15.393
lfingers 7.12502
lthumb 6.77276 14.4787
rfemur -39.4827 -0.167996 24.2326
rtibia 39.7833
rfoot -19.3922 3.26279
rtoes -11.9297
lfemur -36.8687 1.58935 -19.8283
ltibia 76.2049
lfoot 1.20223 -4.08026
ltoes -6.12264
6
root -0.792711 16.3784 -45.4563 16.6028 0.903126 -0.68745
lowerback -14.7458 -0.34879 1.99945
upperback -4.34047 -0.876904 2.68748
thorax 3.68541 -0.425073 1.53515
lowerneck -5.54818 -0.870162 1.5916
upperneck 8.38215 -0.900774 -4.59193
head 3.69324 -0.593001 -1.85365
rclavicle 4.96962e-016 0
rhumerus -44.0749 -38.0799 -58.6104
rradius 14.8592
rwrist 26.7879
rhand -17.3959 -35.4133
rfingers 7.12502
rthumb 8.85336 -65.2076
lclavicle 4.96962e-016 0
lhumerus -34.1651 6.93845 84.7246
lradius 33.2871
lwrist 3.0388
lhand -19.2773 -15.0462
lfingers 7.12502
lthumb 7.03745 14.8169
rfemur -37.119 -0.0789307 24.1784
rtibia 39.2314
rfoot -20.2012 3.27924
rtoes -11.6328
lfemur -36.8984 2.05425 -20.0872
ltibia 75.8375
lfoot 0.124136 -3.62079
ltoes -8.97656
7
root -0.812848 16.4031 -45.2994 17.259 0.654253 -0.67916
lowerback -14.9644 -0.37883 1.68161
upperback -4.74604 -0.871875 2.85214
thorax 3.38323 -0.423654 1.8888
lowerneck -4.50771 -0.792169 1.2226
upperneck 8.09792 -0.763994 -4.6891
head 3.39636 -0.527217 -1.79309
rclavicle 1.676e-014 -1.19271e-014
rhumerus -40.8174 -34.8027 -62.8027
rradius 15.4871
rwrist 23.4162
rhand -17.8372 -34.2299
rfingers 7.12502
rthumb 8.42745 -64.0418
lclavicle 1.676e-014 -1.19271e-014
lhumerus -35.0424 7.73155 84.6817
lradius 31.6432
lwrist 2.24619
lhand -19.28 -15.5996
lfingers 7.12502
lthumb 7.03484 14.2635
rfemur -37.0156 0.187791 24.1409
rtibia 38.8537
rfoot -20.4878 3.29468
rtoes -11.7966
lfemur -40.4458 3.20876 -20.9582
ltibia 75.5398
lfoot -0.286512 -3.71054
ltoes -19.7593
8
root -0.801389 16.4117 -45.0851 17.339 -0.935436 -0.911967
lowerback -15.809 0.23695 1.88328
upperback -4.35619 -0.130332 2.7243
thorax 4.23069 -0.0551952 1.77998
lowerneck -4.61082 -0.768796 1.24794
upperneck 8.09463 -0.725896 -4.79125
head 3.41696 -0.512624 -1.83173
rclavicle 2.06239e-015 0
rhumerus -37.2994 -31.4392 -67.3102
rradius 16.4547
rwrist 19.7572
rhand -17.9967 -34.0049
rfingers 7.12502
rthumb 8.27353 -63.8229
lclavicle 2.06239e-015 0
lhumerus -35.094 8.1575 84.5944
lradius 29.8631
lwrist 1.31661
lhand -19.1785 -16.5402
lfingers 7.12502
lthumb 7.13289 13.3196
rfemur -36.0846 0.963213 24.0694
rtibia 38.3512
rfoot -20.9891 4.0821
rtoes -12.0584
lfemur -40.8717 4.19575 -20.8147
ltibia 75.1488
lfoot -2.01516 -2.47675
ltoes -5.19134
9
root -0.818882 16.4344 -44.8829 16.9555 0.0214339 -0.309316
lowerback -14.5182 0.00763613 1.37836
upperback -4.73417 -0.279463 2.27381
thorax 3.14196 -0.132099 1.55446
lowerneck -5.33981 -0.808549 1.71732
upperneck 9.06981 -0.807445 -4.57001
head 3.89815 -0.544584 -1.87451
rclavicle -1.20513e-014 2.14687e-014
rhumerus -35.7204 -28.8527 -70.5174
rradius 17.6977
rwrist 17.0257
rhand -17.579 -34.8902
rfingers 7.12502
rthumb 8.67666 -64.6919
lclavicle -1.20513e-014 2.14687e-014
lhumerus -35.9205 7.6556 84.1043
lradius 28.0443
lwrist 0.312717
lhand -19.3477 -17.7186
lfingers 7.12502
lthumb 6.96948 12.1467
rfemur -34.5734 0.30238 23.6852
rtibia 38.0261
rfoot -21.608 3.28242
rtoes -13.1382
lfemur -41.7724 3.41587 -21.1687
ltibia 74.2148
lfoot -2.70358 -1.95005
ltoes -1.60643
10
root -0.799325 16.4428 -44.6585 16.7926 -0.933735 -0.467663
lowerback -14.9912 0.496014 1.57407
upperback -4.36991 0.316035 2.17668
thorax 3.77034 0.163411 1.45147
lowerneck -5.38871 -0.824315 1.54693
upperneck 8.96121 -0.831719 -4.40921
head 3.86776 -0.554957 -1.78886
rclavicle -1.71824e-014 -5.56597e-015
rhumerus -33.2966 -26.3924 -73.1991
rradius 18.7921
rwrist 14.4897
rhand -17.2574 -35.0719
rfingers 7.12502
rthumb 8.98693 -64.8605
lclavicle -1.71824e-014 -5.56597e-015
lhumerus -35.9433 7.86562 84.0908
lradius 26.083
lwrist -1.08892
lhand -19.4548 -18.535
lfingers 7.12502
lthumb 6.86617 11.3336
rfemur -33.422 0.351955 23.7035
rtibia 37.7196
rfoot -22.3196 3.93058
rtoes -12.8268
lfemur -42.6272 4.40885 -21.686
ltibia 73.0398
lfoot -3.85723 -0.937405
ltoes -9.79525
11
root -0.804602 16.4395 -44.4494 16.4193 -0.674384 -0.277233
lowerback -15.0986 0.326559 1.177
upperback -4.30114 0.139221 2.33891
thorax 3.90183 0.0753364 1.81695
lowerneck -4.43272 -0.787872 1.02816
upperneck 8.7213 -0.748226 -4.37115
head 3.59801 -0.51787 -1.66076
rclavicle 3.10601e-015 -4.77083e-015
rhumerus -31.6505 -22.9426 -75.3333
rradius 20.116
rwrist 11.4203
rhand -17.0797 -34.5145
rfingers 7.12502
rthumb 9.15842 -64.2956
lclavicle 3.10601e-015 -4.77083e-015
lhumerus -36.9275 8.61977 83.9897
lradius 24.6392
lwrist -2.66915
lhand -19.2375 -19.2981
lfingers 7.12502
lthumb 7.07588 10.5636
rfemur -32.0293 -0.193793 23.6573
rtibia 37.4675
rfoot -22.9049 3.69462
rtoes -12.4897
lfemur -43.3469 4.39108 -22.0579
ltibia 71.6177
lfoot -5.64441 -0.554344
ltoes -16.7637
12
root -0.810124 16.4402 -44.2481 16.2222 -0.481095 -0.0785659
lowerback -15.6906 0.192322 0.879088
upperback -3.91173 -0.0178215 2.35397
thorax 4.63603 -0.00555117 1.98174
lowerneck -4.13396 -0.769222 0.840127
upperneck 8.44669 -0.720997 -4.34306
head 3.44496 -0.503548 -1.6079
rclavicle 4.65902e-015 -2.22639e-014
rhumerus -29.4805 -20.1868 -77.4318
rradius 21.3541
rwrist 9.11245
rhand -16.4127 -35.323
rfingers 7.12502
rthumb 9.80197 -65.0748
lclavicle 4.65902e-015 -2.22639e-014
lhumerus -37.3035 9.43857 83.7295
lradius 23.3911
lwrist -4.01835
lhand -18.3951 -19.3275
lfingers 7.12502
lthumb 7.88899 10.5053
rfemur -30.8595 -0.824212 23.6028
rtibia 37.2192
rfoot -23.4338 3.7242
rtoes -11.3586
lfemur -44.1385 4.20025 -22.1994
ltibia 70.3392
lfoot -7.04205 -0.571198
ltoes -14.8386
13
root -0.816907 16.444 -44.041 16.1952 -0.49432 0.000559521
lowerback -14.5585 0.214519 0.669824
upperback -4.54875 0.0869505 2.30538
thorax 3.35093 0.05042 2.05219
lowerneck -4.25499 -0.797224 0.830446
upperneck 9.17467 -0.731424 -4.35951
head 3.72269 -0.518463 -1.62612
rclavicle 4.50372e-015 2.94201e-014
rhumerus -28.9599 -17.2479 -78.8703
rradius 22.9262
rwrist 6.68173
rhand -15.4 -36.8494
rfingers 7.12502
rthumb 10.7789 -66.5528
lclavicle 4.50372e-015 2.94201e-014
lhumerus -38.9671 9.6911 83.286
lradius 22.2446
lwrist -5.12869
lhand -16.9855 -18.0582
lfingers 7.12502
lthumb 9.24929 11.7189
rfemur -29.8374 -1.09211 23.5725
rtibia 36.9723
rfoot -24.0854 4.16741
rtoes -9.2498
lfemur -44.9943 4.22572 -22.2507
ltibia 68.954
lfoot -7.49327 -0.088271
ltoes -9.86005
